<svg width="37" height="37" viewBox="0 0 37 37" fill="none" xmlns="http://www.w3.org/2000/svg">
<path d="M34.78 25.1292L22.9554 5.51916C22.4773 4.77117 21.8185 4.15559 21.0399 3.72919C20.2612 3.30279 19.3878 3.07928 18.5 3.07928C17.6123 3.07928 16.7388 3.30279 15.9601 3.72919C15.1815 4.15559 14.5227 4.77117 14.0446 5.51916L2.22001 25.1292C1.8023 25.8255 1.57527 26.6195 1.56174 27.4313C1.54821 28.2432 1.74866 29.0443 2.14293 29.7542C2.59877 30.5532 3.25857 31.2168 4.05491 31.6773C4.85124 32.1377 5.75556 32.3785 6.67543 32.375H30.3246C31.2384 32.3847 32.1387 32.1533 32.9344 31.704C33.7302 31.2546 34.3934 30.6034 34.8571 29.8158C35.263 29.0986 35.4698 28.286 35.4562 27.462C35.4427 26.638 35.2092 25.8326 34.78 25.1292ZM32.1592 28.2896C31.9739 28.6081 31.705 28.8698 31.3816 29.0465C31.0583 29.2231 30.6927 29.3079 30.3246 29.2917H6.67543C6.30731 29.3079 5.94177 29.2231 5.6184 29.0465C5.29502 28.8698 5.02613 28.6081 4.84085 28.2896C4.70554 28.0552 4.6343 27.7894 4.6343 27.5187C4.6343 27.2481 4.70554 26.9823 4.84085 26.7479L16.6808 7.1225C16.8936 6.84146 17.1686 6.61354 17.4842 6.45661C17.7998 6.29968 18.1475 6.21801 18.5 6.21801C18.8525 6.21801 19.2002 6.29968 19.5158 6.45661C19.8314 6.61354 20.1064 6.84146 20.3192 7.1225L32.1438 26.7325C32.2843 26.9673 32.3598 27.2353 32.3625 27.509C32.3652 27.7826 32.295 28.052 32.1592 28.2896Z" fill="black"/>
<path d="M18.5 26.2083C19.3515 26.2083 20.0417 25.5181 20.0417 24.6667C20.0417 23.8152 19.3515 23.125 18.5 23.125C17.6486 23.125 16.9584 23.8152 16.9584 24.6667C16.9584 25.5181 17.6486 26.2083 18.5 26.2083Z" fill="black"/>
<path d="M18.5 12.3333C18.0912 12.3333 17.699 12.4958 17.4099 12.7849C17.1208 13.074 16.9584 13.4661 16.9584 13.875V20.0417C16.9584 20.4505 17.1208 20.8427 17.4099 21.1318C17.699 21.4209 18.0912 21.5833 18.5 21.5833C18.9089 21.5833 19.301 21.4209 19.5902 21.1318C19.8793 20.8427 20.0417 20.4505 20.0417 20.0417V13.875C20.0417 13.4661 19.8793 13.074 19.5902 12.7849C19.301 12.4958 18.9089 12.3333 18.5 12.3333Z" fill="black"/>
</svg>
