<svg width="21" height="20" viewBox="0 0 21 20" fill="none" xmlns="http://www.w3.org/2000/svg">
<path d="M10.8896 11.1343L18.2922 19.0746C18.8117 19.6418 19.5909 19.6418 20.1104 19.0746C20.6299 18.5075 20.6299 17.6567 20.1104 17.0896L13.7468 10L20.1104 2.91045C20.6299 2.34328 20.6299 1.49254 20.1104 0.925373C19.8506 0.641791 19.5909 0.5 19.2013 0.5C18.8117 0.5 18.5519 0.641791 18.2922 0.925373L10.8896 8.86567C10.3701 9.57463 10.3701 10.4254 10.8896 11.1343C10.8896 10.9925 10.8896 10.9925 10.8896 11.1343Z" fill="black"/>
<path d="M0.88961 11.1343L8.29221 19.0746C8.81169 19.6418 9.59091 19.6418 10.1104 19.0746C10.6299 18.5075 10.6299 17.6567 10.1104 17.0896L3.74675 10L10.1104 2.91045C10.6299 2.34328 10.6299 1.49254 10.1104 0.925373C9.85065 0.641791 9.59091 0.5 9.2013 0.5C8.81169 0.5 8.55195 0.641791 8.29221 0.925373L0.88961 8.86567C0.37013 9.57463 0.37013 10.4254 0.88961 11.1343C0.88961 10.9925 0.88961 10.9925 0.88961 11.1343Z" fill="black" fill-opacity="0.58"/>
</svg>
