<svg width="19" height="20" viewBox="0 0 19 20" fill="none" xmlns="http://www.w3.org/2000/svg">
<path d="M10.6343 9.61039L18.5746 2.20779C19.1418 1.68831 19.1418 0.90909 18.5746 0.389609C18.0075 -0.12987 17.1567 -0.12987 16.5896 0.38961L9.5 6.75325L2.41045 0.38961C1.84328 -0.12987 0.992536 -0.12987 0.425372 0.38961C0.14179 0.649351 -3.97376e-07 0.909092 -3.80346e-07 1.2987C-3.63315e-07 1.68831 0.14179 1.94805 0.425372 2.20779L8.36567 9.61039C9.07463 10.1299 9.92537 10.1299 10.6343 9.61039C10.4925 9.61039 10.4925 9.61039 10.6343 9.61039Z" fill="black"/>
<path d="M10.6343 19.6104L18.5746 12.2078C19.1418 11.6883 19.1418 10.9091 18.5746 10.3896C18.0075 9.87013 17.1567 9.87013 16.5896 10.3896L9.5 16.7532L2.41045 10.3896C1.84328 9.87013 0.992536 9.87013 0.425372 10.3896C0.14179 10.6494 -3.97376e-07 10.9091 -3.80346e-07 11.2987C-3.63315e-07 11.6883 0.14179 11.9481 0.425372 12.2078L8.36567 19.6104C9.07463 20.1299 9.92537 20.1299 10.6343 19.6104C10.4925 19.6104 10.4925 19.6104 10.6343 19.6104Z" fill="black" fill-opacity="0.58"/>
</svg>
