<svg width="18" height="27" viewBox="0 0 18 27" fill="none" xmlns="http://www.w3.org/2000/svg">
<path d="M16.823 4.53331C15.3024 1.83771 12.5468 0.145362 9.45755 0.0102446C9.15267 -0.00341487 8.84733 -0.00341487 8.54245 0.0102446C5.45316 0.145362 2.69756 1.83771 1.17699 4.53331C-0.398615 7.32349 -0.391735 10.6372 1.1942 13.4004L9 27L16.8058 13.4004C18.3917 10.6372 18.3986 7.32349 16.823 4.53331ZM9 13.8531C6.72259 13.8531 4.87176 12.0357 4.87176 9.79952C4.87176 7.56332 6.72259 5.74599 9 5.74599C11.2774 5.74599 13.1282 7.56332 13.1282 9.79952C13.1282 12.0357 11.2774 13.8531 9 13.8531ZM11.7522 9.79952C11.7522 11.2892 10.5171 12.5019 9 12.5019C7.48287 12.5019 6.24784 11.2892 6.24784 9.79952C6.24784 8.30985 7.48287 7.09717 9 7.09717C10.5171 7.09717 11.7522 8.30647 11.7522 9.79952Z" fill="white"/>
</svg>
