<svg width="52" height="57" viewBox="0 0 52 57" fill="none" xmlns="http://www.w3.org/2000/svg">
<path d="M33.4568 10.3018C33.4237 10.2084 33.4094 10.1092 33.4148 10.01C33.4203 9.91092 33.4453 9.81394 33.4885 9.72495C33.5316 9.63595 33.592 9.55678 33.6659 9.4922C33.7398 9.42762 33.8258 9.37895 33.9186 9.34914C34.0115 9.31933 34.1093 9.30899 34.2061 9.31873C34.303 9.32847 34.3969 9.35811 34.4822 9.40584C34.5676 9.45358 34.6426 9.51843 34.7027 9.59651C34.7628 9.67457 34.8069 9.76425 34.8321 9.86012C35.4518 11.8561 35.7662 13.9375 35.7644 16.0312C35.7811 17.9767 35.5797 19.9177 35.1641 21.8165C35.1272 21.9785 35.0377 22.123 34.9101 22.2264C34.7824 22.3299 34.6242 22.3862 34.4612 22.3862C34.4064 22.3861 34.3518 22.3802 34.2982 22.3686C34.2057 22.3469 34.1184 22.3068 34.0412 22.2507C33.964 22.1945 33.8983 22.1234 33.8481 22.0414C33.7978 21.9593 33.7639 21.868 33.7483 21.7726C33.7326 21.6772 33.7356 21.5795 33.757 21.4853C34.1477 19.6975 34.337 17.8701 34.3212 16.0385C34.3245 14.0923 34.0329 12.1572 33.4568 10.3018ZM1.58026 43.7081C1.73479 43.708 1.88522 43.6574 2.00941 43.5636C2.13359 43.4697 2.22497 43.3377 2.27009 43.187L4.98756 34.1086C5.01835 34.0153 5.03048 33.9167 5.02324 33.8185C5.01601 33.7204 4.98956 33.6247 4.94545 33.5372C4.90135 33.4497 4.84048 33.3721 4.76646 33.309C4.69243 33.2458 4.60675 33.1985 4.51448 33.1698C4.42221 33.141 4.32523 33.1314 4.22927 33.1416C4.1333 33.1517 4.04031 33.1814 3.95579 33.2289C3.87127 33.2763 3.79693 33.3406 3.73718 33.4178C3.67742 33.4951 3.63346 33.5838 3.6079 33.6787L0.89043 42.7571C0.857505 42.8671 0.850311 42.9835 0.869428 43.0968C0.888544 43.2102 0.933439 43.3174 1.00051 43.4099C1.06758 43.5023 1.15496 43.5775 1.25564 43.6293C1.35632 43.6811 1.4675 43.7081 1.58026 43.7081ZM51.8672 56.7053C51.7995 56.7961 51.7122 56.8699 51.6121 56.9209C51.512 56.972 51.4018 56.9989 51.2899 56.9997H2.13588C2.02136 57.0031 1.90774 56.9781 1.80473 56.9269C1.70172 56.8758 1.61237 56.8 1.54431 56.706C1.47625 56.612 1.43151 56.5026 1.41389 56.3871C1.39628 56.2716 1.40632 56.1535 1.44316 56.0428L3.6079 48.8148V48.7854L8.44249 32.6659L8.125 32.342C3.40586 27.5283 0 24.0394 0 16.0312C0 11.7794 1.65579 7.70185 4.60312 4.69542C7.55044 1.68899 11.5479 0 15.716 0C19.8842 0 23.8816 1.68899 26.8289 4.69542C29.7763 7.70185 31.432 11.7794 31.432 16.0312C31.5173 18.4116 31.1248 20.7847 30.2785 23.0047C29.4323 25.2248 28.1502 27.2451 26.5109 28.9415H43.3194C43.4737 28.9405 43.6242 28.99 43.7489 29.0828C43.8735 29.1755 43.9658 29.3066 44.0121 29.4567L45.08 33.0192C45.0879 33.0271 45.0929 33.0375 45.0944 33.0486C45.0944 33.0634 45.1089 33.0928 45.1089 33.1075L51.9639 56.0428C51.9991 56.1534 52.0088 56.2707 51.992 56.3857C51.9752 56.5006 51.9325 56.61 51.8672 56.7053ZM42.7897 30.4136H29.1446L35.382 36.0591L43.5228 32.8735L42.7897 30.4136ZM8.60124 15.1773C8.59981 16.6148 9.01648 18.0204 9.7985 19.2162C10.5805 20.412 11.6928 21.3443 12.9944 21.8951C14.2961 22.4459 15.7287 22.5904 17.1109 22.3103C18.4931 22.0302 19.7628 21.3381 20.7592 20.3217C21.7557 19.3053 22.4342 18.0101 22.7087 16.6002C22.9833 15.1903 22.8417 13.729 22.3017 12.4012C21.7618 11.0734 20.8478 9.93888 19.6755 9.14117C18.5032 8.34346 17.1252 7.91844 15.716 7.9199C13.8295 7.92146 12.0207 8.68658 10.6868 10.0473C9.35285 11.408 8.60277 13.253 8.60124 15.1773ZM5.41185 47.7844V47.7932L33.8667 36.6538L26.9683 30.4136H25.1832C24.5915 31.0466 23.9709 31.6796 23.3215 32.342C20.8107 34.8164 18.4628 37.4572 16.2933 40.2472C16.2237 40.3349 16.1357 40.4056 16.0358 40.454C15.9359 40.5024 15.8266 40.5273 15.716 40.5269C15.6075 40.5271 15.5004 40.5021 15.4028 40.4536C15.3053 40.4051 15.2199 40.3345 15.1532 40.2472C13.4288 38.0008 11.5734 35.8624 9.59702 33.8436L5.41185 47.7844ZM3.1028 55.5276H34.2404L23.0271 42.9264C22.9374 42.8181 22.8803 42.6858 22.8626 42.5452L4.87355 49.5803L3.1028 55.5276ZM50.3086 55.5276L43.9442 34.2867L24.1729 42.0226L36.1829 55.5276H50.3086ZM32.6818 7.17649C32.8245 7.17649 32.964 7.13332 33.0827 7.05244C33.2014 6.97156 33.2939 6.85661 33.3485 6.72211C33.4031 6.58762 33.4174 6.43962 33.3895 6.29684C33.3617 6.15406 33.293 6.02291 33.1921 5.91997C33.0911 5.81703 32.9626 5.74693 32.8226 5.71853C32.6826 5.69013 32.5375 5.70471 32.4057 5.76042C32.2738 5.81612 32.1611 5.91047 32.0818 6.03151C32.0026 6.15255 31.9602 6.29486 31.9602 6.44044C31.9602 6.63565 32.0363 6.82287 32.1716 6.9609C32.3069 7.09894 32.4904 7.17649 32.6818 7.17649ZM0.728796 45.7234C0.586081 45.7234 0.446571 45.7666 0.327908 45.8475C0.209245 45.9283 0.116758 46.0433 0.0621429 46.1778C0.00752823 46.3123 -0.00676147 46.4603 0.0210809 46.6031C0.0489232 46.7458 0.117647 46.877 0.218562 46.9799C0.319477 47.0829 0.44805 47.153 0.588023 47.1814C0.727996 47.2098 0.873082 47.1952 1.00493 47.1395C1.13679 47.0838 1.24948 46.9894 1.32877 46.8684C1.40806 46.7474 1.45038 46.605 1.45038 46.4595C1.45038 46.2643 1.37435 46.077 1.23903 45.939C1.10371 45.801 0.920171 45.7234 0.728796 45.7234Z" fill="white"/>
</svg>
