<svg width="52" height="52" viewBox="0 0 52 52" fill="none" xmlns="http://www.w3.org/2000/svg">
<path d="M13.0814 0C9.61309 0.00359037 6.28788 1.38272 3.83542 3.83475C1.38296 6.28678 0.00359099 9.61142 0 13.0791V38.9118C0.00239193 42.3807 1.38109 45.707 3.83355 48.1607C6.286 50.6145 9.6119 51.9952 13.0814 52H38.9186C42.3874 51.9928 45.7119 50.6113 48.1638 48.1581C50.6158 45.7049 51.9952 42.38 52 38.9118V13.0791C51.9964 9.61142 50.617 6.28678 48.1646 3.83475C45.7121 1.38272 42.3869 0.00359037 38.9186 0H13.0814ZM13.0814 2.26048H38.9186C41.7885 2.26287 44.5403 3.40316 46.5704 5.43128C48.6006 7.45939 49.7434 10.2097 49.7482 13.0791V38.9118C49.7455 40.3923 49.4373 41.8562 48.8429 43.2121C48.2485 44.568 47.3806 45.7867 46.2936 46.7919C43.5217 37.9263 35.2063 31.6195 25.7875 31.6195C21.247 31.6128 16.8221 33.0503 13.1527 35.7242C9.48343 38.3981 6.75998 42.1697 5.37635 46.4935C3.38015 44.4748 2.26068 41.7506 2.26087 38.9118V13.0791C2.26326 10.2106 3.40405 7.4602 5.43277 5.43183C7.46149 3.40346 10.2123 2.26287 13.0814 2.26048ZM25.9277 9.16397C23.2413 9.16636 20.6654 10.2338 18.765 12.1322C16.8646 14.0306 15.7947 16.605 15.7899 19.2909C15.7935 21.9784 16.8626 24.555 18.7629 26.4558C20.6632 28.3566 23.2396 29.4266 25.9277 29.4314C28.5627 29.3527 31.0635 28.2508 32.8996 26.3593C34.7357 24.4679 35.7626 21.9358 35.7626 19.2999C35.7626 16.6641 34.7357 14.132 32.8996 12.2406C31.0635 10.3491 28.5627 9.24269 25.9277 9.16397ZM25.9277 11.4244C27.9835 11.4737 29.9385 12.3248 31.3751 13.796C32.8116 15.2671 33.6158 17.2416 33.6158 19.2977C33.6158 21.3537 32.8116 23.3282 31.3751 24.7994C29.9385 26.2705 27.9835 27.1217 25.9277 27.1709C21.5868 27.1709 18.0508 23.6355 18.0508 19.2954C18.0508 14.9553 21.5868 11.4244 25.9277 11.4244ZM25.792 33.88C34.4873 33.88 42.1471 39.8658 44.3763 48.2024C42.7666 49.1518 40.9217 49.7395 38.9277 49.7395H13.0814V49.7305C10.9336 49.7305 8.93496 49.084 7.24835 47.999C8.35872 43.9365 10.776 40.3526 14.1267 37.8008C17.4775 35.2489 21.5799 33.8711 25.792 33.88Z" fill="white"/>
</svg>
