<?xml version="1.0" encoding="UTF-8"?><svg id="Capa_1" xmlns="http://www.w3.org/2000/svg" viewBox="0 0 283.58 342.66"><defs><style>.cls-1{fill:#fff;stroke-width:0px;}</style></defs><path class="cls-1" d="M127.43,96.56c1.44-.33,2.86-.69,4.3-1,19.29-4.14,40.61,4.97,50.07,21.36,10.95,18.99,9.22,40.8-4.5,56.39-6.97,7.93-6.78,11.63.77,19.17,8.62,8.58,17.07,17.33,25.78,25.81,9.86,9.6,18.82,20.13,29.66,28.73,1.4,1.11,2.33,2.06,4.06.31,4.76-4.81,7.66-7.66,11.18-11.8,15.56-18.26,26.05-39.05,31.38-62.49,4.02-17.67,4.48-35.63,1.61-53.29-8.06-49.65-36.19-84.62-80.6-106.8C180.68,2.73,158.62-.62,136.02.09c-12.28.39-24.3,2.93-36.12,6.63-7.34,2.3-14.46,5.19-21.3,8.34-5.33,2.39-6.84,3.18-10.17,5-9.26,5.07-16.81,12.37-24.62,19.19-12.02,10.5-20.88,23.69-28.33,37.78-7.09,13.44-11.92,27.82-13.92,42.78-6.23,46.84,6.18,88.07,39.19,122.24,22.1,22.86,44.84,45.08,67.29,67.6,10.28,10.3,20.53,20.62,30.83,30.9,1.33,1.32,2.49,3.48,4.82.86,8.6-9.7,14.69-20.78,19.61-32.77,8.7-21.16,7.59-42.29.97-63.52-4.57-14.67-13.86-26.51-24.11-37.5-9.38-10.05-19.35-19.54-29.17-29.16-18.29-17.91-21.74-41.5-8.73-62.28,3.34-5.32,7.29-10.43,12.55-13.91,3.81-2.52,8.39-3.87,12.63-5.73h-.01Z"/></svg>