<svg width="48" height="58" viewBox="0 0 48 58" fill="none" xmlns="http://www.w3.org/2000/svg">
<path d="M21.5716 16.3436C21.8148 16.2873 22.0561 16.2273 22.2992 16.1747C25.5649 15.4747 29.1729 17.0155 30.774 19.7911C32.6276 23.0058 32.3339 26.6972 30.0127 29.3357C28.8325 30.6776 28.8643 31.3044 30.1437 32.5805C31.6026 34.033 33.0334 35.5137 34.5073 36.9493C36.1757 38.5745 37.6926 40.3574 39.5275 41.8118C39.765 41.9994 39.9221 42.1608 40.2139 41.8643C41.02 41.0498 41.5101 40.5675 42.1067 39.8676C44.7402 36.7767 46.5153 33.258 47.4187 29.2907C48.0995 26.2993 48.1762 23.2591 47.6917 20.2696C46.3282 11.8659 41.5662 5.94695 34.0491 2.19176C30.5851 0.461481 26.8499 -0.10527 23.0249 0.0148364C20.9469 0.0805194 18.9119 0.510274 16.9106 1.13708C15.6687 1.52555 14.4623 2.01535 13.3045 2.54833C12.4029 2.95368 12.1467 3.08693 11.5837 3.3947C10.0163 4.25233 8.73884 5.48905 7.41647 6.64319C5.38148 8.42039 3.88142 10.6536 2.62077 13.0388C1.41998 15.3134 0.602613 17.7474 0.264071 20.2809C-0.790833 28.2098 1.30962 35.189 6.89837 40.9729C10.6392 44.8426 14.4884 48.6034 18.2891 52.4149C20.0286 54.1583 21.7643 55.9055 23.5075 57.6451C23.7319 57.8685 23.9283 58.2344 24.323 57.7915C25.7782 56.1494 26.8087 54.2747 27.6429 52.2441C29.1149 48.6616 28.9279 45.0865 27.8075 41.4927C27.0332 39.0099 25.4621 37.0056 23.7263 35.1459C22.1384 33.4456 20.4513 31.8392 18.7885 30.2103C15.693 27.1795 15.1094 23.1859 17.3109 19.6691C17.8757 18.7683 18.5453 17.9031 19.4356 17.3139C20.0809 16.8879 20.8553 16.6589 21.5735 16.3436H21.5716Z" fill="white"/>
</svg>
