<svg width="55" height="42" viewBox="0 0 55 42" fill="none" xmlns="http://www.w3.org/2000/svg">
<path d="M37.96 42C28.6965 42 21.16 34.4635 21.16 25.2C21.16 15.9365 28.6965 8.40002 37.96 8.40002C47.2235 8.40002 54.76 15.9365 54.76 25.2C54.76 34.4635 47.2235 42 37.96 42ZM37.96 10.08C29.623 10.08 22.84 16.863 22.84 25.2C22.84 33.537 29.623 40.32 37.96 40.32C46.297 40.32 53.08 33.537 53.08 25.2C53.08 16.863 46.297 10.08 37.96 10.08Z" fill="white"/>
<path d="M37.96 36.96C31.4752 36.96 26.2 31.6848 26.2 25.2C26.2 18.7152 31.4752 13.44 37.96 13.44C44.4448 13.44 49.72 18.7152 49.72 25.2C49.72 31.6848 44.4448 36.96 37.96 36.96ZM37.96 15.12C32.4017 15.12 27.88 19.6417 27.88 25.2C27.88 30.7583 32.4017 35.28 37.96 35.28C43.5183 35.28 48.04 30.7583 48.04 25.2C48.04 19.6417 43.5183 15.12 37.96 15.12Z" fill="white"/>
<path d="M33 42H2V35H25.8462V36.75H3.58974V40.25H33V42Z" fill="white"/>
<path d="M26 37H4V30H23.6429V31.75H5.57143V35.25H26V37Z" fill="white"/>
<path d="M23 32H5V25H22.2174V26.75H6.56522V30.25H23V32Z" fill="white"/>
<path d="M21.84 26.88H0V20.16H21.84V21.84H1.68V25.2H21.84V26.88Z" fill="white"/>
<path d="M22.6667 22H4V15H25V16.75H5.55556V20.25H22.6667V22Z" fill="white"/>
<path d="M24.36 16.8H0V10.08H29.4V11.76H1.68V15.12H24.36V16.8Z" fill="white"/>
<path d="M29.4 11.76H1.67999V5.03998H34.44V10.08H32.76V6.71998H3.35999V10.08H29.4V11.76Z" fill="white"/>
<path d="M32.76 6.72H0V0H32.76V6.72ZM1.68 5.04H31.08V1.68H1.68V5.04Z" fill="white"/>
</svg>
