<svg width="52" height="52" viewBox="0 0 52 52" fill="none" xmlns="http://www.w3.org/2000/svg">
<path d="M8.66667 13H0V46.5833C0 49.5701 2.42992 52 5.41667 52H46.5833C49.5701 52 52 49.5701 52 46.5833V0H8.66667V13ZM2.16667 46.5833V15.1667H8.66667V46.5833C8.66667 48.3752 7.2085 49.8333 5.41667 49.8333C3.62483 49.8333 2.16667 48.3752 2.16667 46.5833ZM10.8333 2.16667H49.8333V46.5833C49.8333 48.3752 48.3752 49.8333 46.5833 49.8333H9.74783C9.78033 49.7911 9.80308 49.7423 9.83342 49.699C9.89517 49.6113 9.94933 49.5192 10.0057 49.4271C10.3018 48.9525 10.5208 48.434 10.6546 47.8909C10.6795 47.7891 10.7109 47.6916 10.7304 47.5876C10.7933 47.2615 10.8333 46.9278 10.8333 46.5833V2.16667Z" fill="white"/>
<path d="M16 7H45V9.17143H16V7ZM20.1429 12.4286H40.8571V14.6H20.1429V12.4286ZM32.5714 21.1143H45V23.2857H32.5714V21.1143ZM32.5714 26.5429H45V28.7143H32.5714V26.5429ZM28.4286 21.1143H16V34.1429H28.4286V21.1143ZM26.3571 31.9714H18.0714V23.2857H26.3571V31.9714ZM32.5714 31.9714H45V34.1429H32.5714V31.9714ZM16 37.4H28.4286V39.5714H16V37.4ZM32.5714 37.4H45V39.5714H32.5714V37.4ZM16 42.8286H28.4286V45H16V42.8286ZM32.5714 42.8286H45V45H32.5714V42.8286Z" fill="white"/>
</svg>
